<mxfile host="app.diagrams.net" modified="2021-04-18T02:53:25.091Z" agent="5.0 (Windows NT 10.0; Win64; x64) AppleWebKit/537.36 (KHTML, like Gecko) Chrome/90.0.4430.72 Safari/537.36" etag="eF7WMGhwKY5f7HrSn3z-" version="14.6.1" type="github">
  <diagram id="LvLzM8g1eFwjHuaZsIuc" name="Page-1">
    <mxGraphModel dx="2489" dy="800" grid="1" gridSize="10" guides="1" tooltips="1" connect="1" arrows="1" fold="1" page="1" pageScale="1" pageWidth="827" pageHeight="1169" math="0" shadow="0">
      <root>
        <mxCell id="0" />
        <mxCell id="1" parent="0" />
        <mxCell id="C2kSiZKk1aLqZrWRAEha-1" value="" style="whiteSpace=wrap;html=1;aspect=fixed;" vertex="1" parent="1">
          <mxGeometry x="-120" y="80" width="1110" height="1110" as="geometry" />
        </mxCell>
        <mxCell id="C2kSiZKk1aLqZrWRAEha-2" value="&lt;b&gt;UI Website quản lý lưu trữ&lt;/b&gt;" style="rounded=0;whiteSpace=wrap;html=1;" vertex="1" parent="1">
          <mxGeometry x="310" y="230" width="290" height="60" as="geometry" />
        </mxCell>
        <mxCell id="C2kSiZKk1aLqZrWRAEha-3" value="" style="endArrow=none;html=1;exitX=1;exitY=0.5;exitDx=0;exitDy=0;entryX=0;entryY=0.5;entryDx=0;entryDy=0;" edge="1" parent="1" source="C2kSiZKk1aLqZrWRAEha-2" target="C2kSiZKk1aLqZrWRAEha-4">
          <mxGeometry width="50" height="50" relative="1" as="geometry">
            <mxPoint x="390" y="430" as="sourcePoint" />
            <mxPoint x="440" y="380" as="targetPoint" />
          </mxGeometry>
        </mxCell>
        <mxCell id="C2kSiZKk1aLqZrWRAEha-4" value="&lt;b&gt;Tầng Client&lt;/b&gt;" style="text;html=1;strokeColor=none;fillColor=none;align=center;verticalAlign=middle;whiteSpace=wrap;rounded=0;" vertex="1" parent="1">
          <mxGeometry x="680" y="245" width="90" height="30" as="geometry" />
        </mxCell>
        <mxCell id="C2kSiZKk1aLqZrWRAEha-5" value="" style="html=1;verticalAlign=bottom;endArrow=open;dashed=1;endSize=8;" edge="1" parent="1">
          <mxGeometry relative="1" as="geometry">
            <mxPoint x="300" y="259.5" as="sourcePoint" />
            <mxPoint x="220" y="259.5" as="targetPoint" />
          </mxGeometry>
        </mxCell>
        <mxCell id="C2kSiZKk1aLqZrWRAEha-6" value="&lt;b&gt;Angular Js, Typescript, HTML&lt;/b&gt;" style="text;html=1;strokeColor=none;fillColor=none;align=center;verticalAlign=middle;whiteSpace=wrap;rounded=0;" vertex="1" parent="1">
          <mxGeometry x="30" y="245" width="180" height="30" as="geometry" />
        </mxCell>
        <mxCell id="C2kSiZKk1aLqZrWRAEha-7" value="&lt;b&gt;Dịch vụ Web quản lý lưu trữ&lt;/b&gt;" style="rounded=0;whiteSpace=wrap;html=1;" vertex="1" parent="1">
          <mxGeometry x="310" y="340" width="290" height="60" as="geometry" />
        </mxCell>
        <mxCell id="C2kSiZKk1aLqZrWRAEha-8" value="" style="endArrow=none;html=1;exitX=1;exitY=0.5;exitDx=0;exitDy=0;entryX=0;entryY=0.5;entryDx=0;entryDy=0;" edge="1" target="C2kSiZKk1aLqZrWRAEha-9" parent="1">
          <mxGeometry width="50" height="50" relative="1" as="geometry">
            <mxPoint x="600" y="371" as="sourcePoint" />
            <mxPoint x="440" y="491" as="targetPoint" />
          </mxGeometry>
        </mxCell>
        <mxCell id="C2kSiZKk1aLqZrWRAEha-9" value="&lt;b&gt;Tầng Service&lt;/b&gt;" style="text;html=1;strokeColor=none;fillColor=none;align=center;verticalAlign=middle;whiteSpace=wrap;rounded=0;" vertex="1" parent="1">
          <mxGeometry x="680" y="356" width="90" height="30" as="geometry" />
        </mxCell>
        <mxCell id="C2kSiZKk1aLqZrWRAEha-10" value="" style="html=1;verticalAlign=bottom;endArrow=open;dashed=1;endSize=8;" edge="1" parent="1">
          <mxGeometry relative="1" as="geometry">
            <mxPoint x="300" y="374.5" as="sourcePoint" />
            <mxPoint x="220" y="374.5" as="targetPoint" />
          </mxGeometry>
        </mxCell>
        <mxCell id="C2kSiZKk1aLqZrWRAEha-11" value="&lt;b&gt;.NET CORE&lt;/b&gt;" style="text;html=1;strokeColor=none;fillColor=none;align=center;verticalAlign=middle;whiteSpace=wrap;rounded=0;" vertex="1" parent="1">
          <mxGeometry x="30" y="360" width="180" height="30" as="geometry" />
        </mxCell>
        <mxCell id="C2kSiZKk1aLqZrWRAEha-16" value="&lt;b&gt;Three-layer, Sql Connection, Databaseup(Data Migration -Self-build tools&lt;/b&gt;&lt;br&gt;&lt;b&gt;), Code smith&lt;/b&gt;" style="text;html=1;strokeColor=none;fillColor=none;align=center;verticalAlign=middle;whiteSpace=wrap;rounded=0;" vertex="1" parent="1">
          <mxGeometry x="20" y="430" width="200" height="160" as="geometry" />
        </mxCell>
        <mxCell id="C2kSiZKk1aLqZrWRAEha-17" value="&lt;b&gt;Các Phương thức tương tác cơ sở dữ liệu&lt;/b&gt;" style="rounded=0;whiteSpace=wrap;html=1;" vertex="1" parent="1">
          <mxGeometry x="310" y="463" width="290" height="60" as="geometry" />
        </mxCell>
        <mxCell id="C2kSiZKk1aLqZrWRAEha-18" value="" style="html=1;verticalAlign=bottom;endArrow=open;dashed=1;endSize=8;" edge="1" parent="1">
          <mxGeometry relative="1" as="geometry">
            <mxPoint x="300" y="497.5" as="sourcePoint" />
            <mxPoint x="220" y="497.5" as="targetPoint" />
          </mxGeometry>
        </mxCell>
        <mxCell id="C2kSiZKk1aLqZrWRAEha-19" value="&lt;b&gt;Tầng kết nối cơ sở dữ liệu&amp;nbsp;&lt;/b&gt;" style="text;html=1;strokeColor=none;fillColor=none;align=center;verticalAlign=middle;whiteSpace=wrap;rounded=0;" vertex="1" parent="1">
          <mxGeometry x="680" y="481" width="100" height="30" as="geometry" />
        </mxCell>
        <mxCell id="C2kSiZKk1aLqZrWRAEha-20" value="" style="endArrow=none;html=1;entryX=0;entryY=0.5;entryDx=0;entryDy=0;" edge="1" target="C2kSiZKk1aLqZrWRAEha-19" parent="1">
          <mxGeometry width="50" height="50" relative="1" as="geometry">
            <mxPoint x="600" y="496" as="sourcePoint" />
            <mxPoint x="440" y="614" as="targetPoint" />
          </mxGeometry>
        </mxCell>
        <mxCell id="C2kSiZKk1aLqZrWRAEha-21" value="&lt;b&gt;SQL Server&lt;/b&gt;" style="text;html=1;strokeColor=none;fillColor=none;align=center;verticalAlign=middle;whiteSpace=wrap;rounded=0;" vertex="1" parent="1">
          <mxGeometry x="20" y="591" width="200" height="160" as="geometry" />
        </mxCell>
        <mxCell id="C2kSiZKk1aLqZrWRAEha-22" value="" style="html=1;verticalAlign=bottom;endArrow=open;dashed=1;endSize=8;" edge="1" parent="1">
          <mxGeometry relative="1" as="geometry">
            <mxPoint x="300" y="658.5" as="sourcePoint" />
            <mxPoint x="220" y="658.5" as="targetPoint" />
          </mxGeometry>
        </mxCell>
        <mxCell id="C2kSiZKk1aLqZrWRAEha-24" value="" style="endArrow=none;html=1;entryX=0;entryY=0.5;entryDx=0;entryDy=0;" edge="1" target="C2kSiZKk1aLqZrWRAEha-25" parent="1">
          <mxGeometry width="50" height="50" relative="1" as="geometry">
            <mxPoint x="600" y="663" as="sourcePoint" />
            <mxPoint x="440" y="781" as="targetPoint" />
          </mxGeometry>
        </mxCell>
        <mxCell id="C2kSiZKk1aLqZrWRAEha-25" value="&lt;b&gt;Tầng cơ sở dữ liệu&lt;/b&gt;" style="text;html=1;strokeColor=none;fillColor=none;align=center;verticalAlign=middle;whiteSpace=wrap;rounded=0;" vertex="1" parent="1">
          <mxGeometry x="680" y="648" width="100" height="30" as="geometry" />
        </mxCell>
        <mxCell id="C2kSiZKk1aLqZrWRAEha-26" value="Database" style="strokeWidth=2;html=1;shape=mxgraph.flowchart.database;whiteSpace=wrap;" vertex="1" parent="1">
          <mxGeometry x="320" y="590" width="270" height="140" as="geometry" />
        </mxCell>
        <mxCell id="C2kSiZKk1aLqZrWRAEha-27" value="" style="ellipse;html=1;shape=endState;fillColor=#000000;strokeColor=#ff0000;" vertex="1" parent="1">
          <mxGeometry x="50" y="150" width="50" height="50" as="geometry" />
        </mxCell>
        <mxCell id="C2kSiZKk1aLqZrWRAEha-28" value="" style="shape=mxgraph.bpmn.shape;html=1;verticalLabelPosition=bottom;labelBackgroundColor=#ffffff;verticalAlign=top;align=center;perimeter=ellipsePerimeter;outlineConnect=0;outline=end;symbol=terminate;" vertex="1" parent="1">
          <mxGeometry x="-20" y="150" width="50" height="50" as="geometry" />
        </mxCell>
      </root>
    </mxGraphModel>
  </diagram>
</mxfile>
